<svg width="1051" height="281" viewBox="0 0 1051 281" fill="none" xmlns="http://www.w3.org/2000/svg">
<rect width="1051" height="281" fill="#2F74C0"/>
<path d="M110.333 237C104.675 237 99.2492 234.752 95.2484 230.752C91.2476 226.751 89 221.325 89 215.667V173C89 167.342 86.7524 161.916 82.7516 157.915C78.7508 153.914 73.3246 151.667 67.6667 151.667H57V130.333H67.6667C73.3246 130.333 78.7508 128.086 82.7516 124.085C86.7524 120.084 89 114.658 89 109V66.3333C89 60.6754 91.2476 55.2492 95.2484 51.2484C99.2492 47.2476 104.675 45 110.333 45H131.667V66.3333H110.333V119.667C110.333 125.325 108.086 130.751 104.085 134.752C100.084 138.752 94.658 141 89 141C94.658 141 100.084 143.248 104.085 147.248C108.086 151.249 110.333 156.675 110.333 162.333V215.667H131.667V237H110.333ZM195.667 237C201.325 237 206.751 234.752 210.752 230.752C214.752 226.751 217 221.325 217 215.667V173C217 167.342 219.248 161.916 223.248 157.915C227.249 153.914 232.675 151.667 238.333 151.667H249V130.333H238.333C232.675 130.333 227.249 128.086 223.248 124.085C219.248 120.084 217 114.658 217 109V66.3333C217 60.6754 214.752 55.2492 210.752 51.2484C206.751 47.2476 201.325 45 195.667 45H174.333V66.3333H195.667V119.667C195.667 125.325 197.914 130.751 201.915 134.752C205.916 138.752 211.342 141 217 141C211.342 141 205.916 143.248 201.915 147.248C197.914 151.249 195.667 156.675 195.667 162.333V215.667H174.333V237H195.667Z" fill="white"/>
<mask id="mask0" mask-type="alpha" maskUnits="userSpaceOnUse" x="0" y="0" width="1051" height="281">
<rect width="1051" height="281" fill="#2F74C0"/>
</mask>
<g mask="url(#mask0)">
<path d="M315.5 374.5L898 -60.5H1077V374.5H315.5Z" fill="#2A67AA"/>
</g>
<path d="M316.969 125V87.6875H330.031V79.9062H294.5V87.6875H307.531V125H316.969ZM336.25 137.406C344.75 137.406 349 134.375 351.875 125.75L363.406 91.5H353.781L346.656 117.688H346.5L339.375 91.5H329.344L341.062 125.219L340.719 126.625C340.062 129.219 338.125 130.344 334.781 130.344C334.469 130.344 333.094 130.312 332.812 130.281V137.312C333.094 137.375 335.938 137.406 336.25 137.406ZM386.281 91.0938C381.562 91.0938 377.688 93.4375 375.906 97.25H375.719V91.5H366.719V135.938H375.844V119.375H376.031C377.844 123.156 381.562 125.406 386.438 125.406C394.812 125.406 400 118.906 400 108.25C400 97.5625 394.781 91.0938 386.281 91.0938ZM383.219 118.062C378.75 118.062 375.812 114.188 375.812 108.25C375.812 102.375 378.781 98.4375 383.219 98.4375C387.719 98.4375 390.656 102.312 390.656 108.25C390.656 114.219 387.719 118.062 383.219 118.062ZM419.75 97.6562C423.781 97.6562 426.594 100.469 426.781 104.75H412.562C412.875 100.562 415.781 97.6562 419.75 97.6562ZM426.906 114.75C426.062 117.281 423.438 118.844 420.156 118.844C415.562 118.844 412.469 115.625 412.469 110.906V110.344H435.562V107.562C435.562 97.375 429.375 90.9062 419.656 90.9062C409.781 90.9062 403.5 97.7188 403.5 108.406C403.5 119.062 409.75 125.594 420 125.594C428.219 125.594 434.281 121.281 435.281 114.75H426.906ZM439.719 101.406C439.719 106.312 442.969 109.594 449.312 111.031L455.5 112.406C458.5 113.125 459.625 114.031 459.625 115.688C459.625 117.844 457.5 119.188 454.062 119.188C450.438 119.188 448.188 117.594 447.781 114.812H438.875C439.344 121.312 444.875 125.594 453.812 125.594C462.656 125.594 468.719 121.281 468.719 114.719C468.719 109.75 466 107.125 459.281 105.625L452.875 104.25C449.938 103.562 448.5 102.469 448.5 100.844C448.5 98.7188 450.594 97.3125 453.719 97.3125C457.094 97.3125 459.281 98.9688 459.438 101.594H467.844C467.75 95.125 462.219 90.9062 453.844 90.9062C445.25 90.9062 439.719 95.0625 439.719 101.406ZM503.719 103.969C503.312 96.4062 497.531 90.9062 488.469 90.9062C478.469 90.9062 472.062 97.5938 472.062 108.219C472.062 119.031 478.469 125.594 488.531 125.594C497.406 125.594 503.25 120.594 503.75 112.719H495.25C494.719 116.375 492.312 118.438 488.625 118.438C484.125 118.438 481.312 114.688 481.312 108.219C481.312 101.875 484.125 98.0625 488.594 98.0625C492.375 98.0625 494.781 100.469 495.25 103.969H503.719ZM508.156 125H517.281V106.406C517.281 101.688 519.906 98.9375 524.406 98.9375C525.719 98.9375 526.969 99.1562 527.719 99.4688V91.4375C527.062 91.2188 526.188 91.0938 525.125 91.0938C521.188 91.0938 518.312 93.375 517.156 97.5312H516.969V91.5H508.156V125ZM531.625 125H540.75V91.5H531.625V125ZM536.188 87.8125C538.875 87.8125 541.062 85.75 541.062 83.0938C541.062 80.375 538.875 78.375 536.188 78.375C533.5 78.375 531.312 80.375 531.312 83.0938C531.312 85.75 533.5 87.8125 536.188 87.8125ZM566.406 91.0938C561.688 91.0938 557.812 93.4375 556.031 97.25H555.844V91.5H546.844V135.938H555.969V119.375H556.156C557.969 123.156 561.688 125.406 566.562 125.406C574.938 125.406 580.125 118.906 580.125 108.25C580.125 97.5625 574.906 91.0938 566.406 91.0938ZM563.344 118.062C558.875 118.062 555.938 114.188 555.938 108.25C555.938 102.375 558.906 98.4375 563.344 98.4375C567.844 98.4375 570.781 102.312 570.781 108.25C570.781 114.219 567.844 118.062 563.344 118.062ZM587.281 83.7812V91.5H582.562V98.375H587.281V115.938C587.281 122.469 590.344 125.125 598.219 125.125C600.062 125.125 601.625 124.938 602.562 124.75V118.031C602 118.125 601.156 118.188 600.344 118.188C597.656 118.188 596.406 116.938 596.406 114.375V98.375H602.594V91.5H596.406V83.7812H587.281ZM628.531 110.906V102.938H608V110.906H628.531ZM653.094 125V87.6875H666.156V79.9062H630.625V87.6875H643.656V125H653.094ZM672.375 137.406C680.875 137.406 685.125 134.375 688 125.75L699.531 91.5H689.906L682.781 117.688H682.625L675.5 91.5H665.469L677.188 125.219L676.844 126.625C676.188 129.219 674.25 130.344 670.906 130.344C670.594 130.344 669.219 130.312 668.938 130.281V137.312C669.219 137.375 672.062 137.406 672.375 137.406ZM722.406 91.0938C717.688 91.0938 713.812 93.4375 712.031 97.25H711.844V91.5H702.844V135.938H711.969V119.375H712.156C713.969 123.156 717.688 125.406 722.562 125.406C730.938 125.406 736.125 118.906 736.125 108.25C736.125 97.5625 730.906 91.0938 722.406 91.0938ZM719.344 118.062C714.875 118.062 711.938 114.188 711.938 108.25C711.938 102.375 714.906 98.4375 719.344 98.4375C723.844 98.4375 726.781 102.312 726.781 108.25C726.781 114.219 723.844 118.062 719.344 118.062ZM755.875 97.6562C759.906 97.6562 762.719 100.469 762.906 104.75H748.688C749 100.562 751.906 97.6562 755.875 97.6562ZM763.031 114.75C762.188 117.281 759.562 118.844 756.281 118.844C751.688 118.844 748.594 115.625 748.594 110.906V110.344H771.688V107.562C771.688 97.375 765.5 90.9062 755.781 90.9062C745.906 90.9062 739.625 97.7188 739.625 108.406C739.625 119.062 745.875 125.594 756.125 125.594C764.344 125.594 770.406 121.281 771.406 114.75H763.031ZM797.531 79.125C784.156 79.125 775.781 88.0938 775.781 102.469C775.781 116.812 784.156 125.781 797.531 125.781C810.875 125.781 819.281 116.812 819.281 102.469C819.281 88.0938 810.875 79.125 797.531 79.125ZM797.531 87C804.906 87 809.625 93 809.625 102.469C809.625 111.906 804.906 117.875 797.531 117.875C790.125 117.875 785.406 111.906 785.406 102.469C785.406 93 790.156 87 797.531 87ZM834.812 87.2812H842.844C847.531 87.2812 850.469 90.0938 850.469 94.4688C850.469 98.9375 847.688 101.656 842.938 101.656H834.812V87.2812ZM834.812 108.5H842.375L850.781 125H861.469L851.969 107.094C857.156 105.062 860.156 100.062 860.156 94.2812C860.156 85.375 854.219 79.9062 843.844 79.9062H825.375V125H834.812V108.5ZM914.125 125V79.9062H903.188L890.375 111.875H890.125L877.312 79.9062H866.375V125H874.781V94.5625H875.031L887.281 124.562H893.219L905.469 94.5625H905.719V125H914.125ZM316.719 201C326.344 201 332.312 196.031 332.312 188.094C332.312 182.125 327.812 177.656 321.688 177.188V176.938C326.469 176.219 330.156 172.094 330.156 167.156C330.156 160.25 324.844 155.906 316.375 155.906H296.75V201H316.719ZM306.188 162.938H313.938C318.344 162.938 320.875 165 320.875 168.625C320.875 172.438 318 174.656 312.969 174.656H306.188V162.938ZM306.188 193.969V180.875H314.094C319.656 180.875 322.688 183.125 322.688 187.344C322.688 191.656 319.75 193.969 314.312 193.969H306.188ZM352.281 201.594C362.5 201.594 368.875 195.125 368.875 184.219C368.875 173.469 362.406 166.906 352.281 166.906C342.156 166.906 335.688 173.5 335.688 184.219C335.688 195.094 342.062 201.594 352.281 201.594ZM352.281 194.625C347.688 194.625 344.938 190.844 344.938 184.25C344.938 177.75 347.719 173.875 352.281 173.875C356.844 173.875 359.594 177.719 359.594 184.25C359.594 190.844 356.844 194.625 352.281 194.625ZM373.75 201H382.875V167.5H373.75V201ZM378.312 163.812C381 163.812 383.188 161.75 383.188 159.094C383.188 156.375 381 154.375 378.312 154.375C375.625 154.375 373.438 156.375 373.438 159.094C373.438 161.75 375.625 163.812 378.312 163.812ZM389.188 201H398.312V155.906H389.188V201ZM419.5 173.656C423.531 173.656 426.344 176.469 426.531 180.75H412.312C412.625 176.562 415.531 173.656 419.5 173.656ZM426.656 190.75C425.812 193.281 423.188 194.844 419.906 194.844C415.312 194.844 412.219 191.625 412.219 186.906V186.344H435.312V183.562C435.312 173.375 429.125 166.906 419.406 166.906C409.531 166.906 403.25 173.719 403.25 184.406C403.25 195.062 409.5 201.594 419.75 201.594C427.969 201.594 434.031 197.281 435.031 190.75H426.656ZM440.031 201H449.156V182.406C449.156 177.688 451.781 174.938 456.281 174.938C457.594 174.938 458.844 175.156 459.594 175.469V167.438C458.938 167.219 458.062 167.094 457 167.094C453.062 167.094 450.188 169.375 449.031 173.531H448.844V167.5H440.031V201ZM482.906 167.094C478.188 167.094 474.312 169.438 472.531 173.25H472.344V167.5H463.344V211.938H472.469V195.375H472.656C474.469 199.156 478.188 201.406 483.062 201.406C491.438 201.406 496.625 194.906 496.625 184.25C496.625 173.562 491.406 167.094 482.906 167.094ZM479.844 194.062C475.375 194.062 472.438 190.188 472.438 184.25C472.438 178.375 475.406 174.438 479.844 174.438C484.344 174.438 487.281 178.312 487.281 184.25C487.281 190.219 484.344 194.062 479.844 194.062ZM501.562 201H510.688V155.906H501.562V201ZM529.781 194.875C526.625 194.875 524.562 193.281 524.562 190.844C524.562 188.469 526.5 187 530.125 186.75L537.031 186.312V188.719C537.031 192.312 533.812 194.875 529.781 194.875ZM526.781 201.5C531.031 201.5 535.156 199.375 537 195.875H537.188V201H546V178.031C546 171.344 540.312 166.906 531.688 166.906C523.188 166.906 517.406 171.312 517.156 177.781H525.469C525.875 175.375 528.125 173.719 531.281 173.719C534.844 173.719 537.031 175.438 537.031 178.594V180.781L528.75 181.281C520.156 181.781 515.469 185.25 515.469 191.344C515.469 197.344 520.344 201.5 526.781 201.5ZM554.344 159.781V167.5H549.625V174.375H554.344V191.938C554.344 198.469 557.406 201.125 565.281 201.125C567.125 201.125 568.688 200.938 569.625 200.75V194.031C569.062 194.125 568.219 194.188 567.406 194.188C564.719 194.188 563.469 192.938 563.469 190.375V174.375H569.656V167.5H563.469V159.781H554.344ZM589.188 173.656C593.219 173.656 596.031 176.469 596.219 180.75H582C582.312 176.562 585.219 173.656 589.188 173.656ZM596.344 190.75C595.5 193.281 592.875 194.844 589.594 194.844C585 194.844 581.906 191.625 581.906 186.906V186.344H605V183.562C605 173.375 598.812 166.906 589.094 166.906C579.219 166.906 572.938 173.719 572.938 184.406C572.938 195.062 579.188 201.594 589.438 201.594C597.656 201.594 603.719 197.281 604.719 190.75H596.344Z" fill="white"/>
<path d="M935.629 262.068C937.44 262.068 938.65 260.626 938.65 258.445C938.65 256.271 937.44 254.822 935.649 254.822C934.645 254.822 933.817 255.267 933.373 256.046H933.346V252.136H932.156V262H933.291V260.797H933.318C933.776 261.617 934.59 262.068 935.629 262.068ZM935.396 255.875C936.627 255.875 937.434 256.887 937.434 258.445C937.434 260.011 936.627 261.016 935.396 261.016C934.173 261.016 933.339 259.977 933.339 258.445C933.339 256.921 934.173 255.875 935.396 255.875ZM940.243 264.659C941.528 264.659 942.116 264.16 942.725 262.499L945.521 254.891H944.27L942.301 260.811H942.28L940.312 254.891H939.04L941.665 262.007L941.501 262.506C941.228 263.333 940.858 263.654 940.195 263.654C940.045 263.654 939.86 263.647 939.73 263.62V264.618C939.86 264.646 940.1 264.659 940.243 264.659ZM954.64 256.019C955.569 256.019 956.164 256.757 956.164 257.926C956.164 259.095 955.562 259.84 954.626 259.84C953.73 259.84 953.184 259.115 953.184 257.926C953.184 256.729 953.724 256.019 954.64 256.019ZM954.879 252.19C951.557 252.19 949.232 254.48 949.232 257.892C949.232 261.569 951.659 263.6 954.995 263.6C955.877 263.6 956.697 263.477 957.299 263.265V262.403C956.854 262.602 955.925 262.731 955.009 262.731C952.261 262.731 950.196 261.029 950.196 257.933C950.196 255.075 952.131 253.052 954.79 253.052C957.511 253.052 959.397 254.727 959.397 257.208C959.397 258.979 958.796 259.977 957.982 259.977C957.456 259.977 957.21 259.662 957.21 259.218V255.205H956.178V256.039H956.123C955.863 255.458 955.2 255.075 954.469 255.075C953.067 255.075 952.09 256.237 952.09 257.898C952.09 259.635 953.047 260.804 954.469 260.804C955.275 260.804 955.911 260.407 956.205 259.717H956.26C956.342 260.4 957.012 260.865 957.791 260.865C959.391 260.865 960.361 259.409 960.361 257.222C960.361 254.207 958.058 252.19 954.879 252.19ZM961.585 262H962.774V257.598C962.774 256.613 963.458 255.875 964.401 255.875C965.283 255.875 965.857 256.436 965.857 257.29V262H967.047V257.536C967.047 256.572 967.71 255.875 968.653 255.875C969.59 255.875 970.13 256.449 970.13 257.42V262H971.319V257.146C971.319 255.738 970.41 254.822 969.002 254.822C968.004 254.822 967.17 255.328 966.773 256.176H966.746C966.438 255.314 965.721 254.822 964.75 254.822C963.827 254.822 963.068 255.287 962.733 256.053H962.706V254.891H961.585V262ZM974.088 258.049V252.136H972.898V262H974.088V259.32L974.751 258.691L977.39 262H978.771L975.592 257.96L978.675 254.891H977.232L974.088 258.049ZM981.977 261.084C981.088 261.084 980.521 260.626 980.521 259.977C980.521 259.3 981.067 258.91 982.12 258.849L983.959 258.732V259.3C983.959 260.312 983.118 261.084 981.977 261.084ZM981.71 262.103C982.701 262.103 983.59 261.562 983.993 260.776H984.021V262H985.148V257.119C985.148 255.718 984.062 254.822 982.373 254.822C980.862 254.822 979.693 255.738 979.659 256.948H980.794C980.931 256.285 981.539 255.868 982.353 255.868C983.385 255.868 983.959 256.347 983.959 257.222V257.81L981.983 257.926C980.247 258.028 979.311 258.753 979.311 259.977C979.311 261.234 980.268 262.103 981.71 262.103ZM986.659 262H987.849V257.598C987.849 256.613 988.532 255.875 989.476 255.875C990.357 255.875 990.932 256.436 990.932 257.29V262H992.121V257.536C992.121 256.572 992.784 255.875 993.728 255.875C994.664 255.875 995.204 256.449 995.204 257.42V262H996.394V257.146C996.394 255.738 995.484 254.822 994.076 254.822C993.078 254.822 992.244 255.328 991.848 256.176H991.82C991.513 255.314 990.795 254.822 989.824 254.822C988.901 254.822 988.143 255.287 987.808 256.053H987.78V254.891H986.659V262ZM1000.26 261.084C999.367 261.084 998.8 260.626 998.8 259.977C998.8 259.3 999.347 258.91 1000.4 258.849L1002.24 258.732V259.3C1002.24 260.312 1001.4 261.084 1000.26 261.084ZM999.989 262.103C1000.98 262.103 1001.87 261.562 1002.27 260.776H1002.3V262H1003.43V257.119C1003.43 255.718 1002.34 254.822 1000.65 254.822C999.142 254.822 997.973 255.738 997.938 256.948H999.073C999.21 256.285 999.818 255.868 1000.63 255.868C1001.66 255.868 1002.24 256.347 1002.24 257.222V257.81L1000.26 257.926C998.526 258.028 997.59 258.753 997.59 259.977C997.59 261.234 998.547 262.103 999.989 262.103ZM1007.63 262.068C1008.66 262.068 1009.47 261.617 1009.93 260.797H1009.95V262H1011.08V252.136H1009.89V256.046H1009.87C1009.44 255.267 1008.62 254.822 1007.6 254.822C1005.84 254.822 1004.59 256.271 1004.59 258.445C1004.59 260.619 1005.85 262.068 1007.63 262.068ZM1007.86 255.875C1009.08 255.875 1009.9 256.914 1009.9 258.445C1009.9 259.983 1009.08 261.016 1007.86 261.016C1006.63 261.016 1005.81 260.004 1005.81 258.445C1005.81 256.894 1006.63 255.875 1007.86 255.875ZM1015.54 255.854C1016.65 255.854 1017.41 256.647 1017.43 257.837H1013.57C1013.65 256.654 1014.44 255.854 1015.54 255.854ZM1017.41 259.963C1017.21 260.619 1016.52 261.036 1015.64 261.036C1014.39 261.036 1013.57 260.168 1013.57 258.835V258.767H1018.67V258.315C1018.67 256.162 1017.47 254.822 1015.56 254.822C1013.61 254.822 1012.34 256.265 1012.34 258.473C1012.34 260.681 1013.61 262.068 1015.62 262.068C1017.14 262.068 1018.38 261.193 1018.58 259.963H1017.41ZM1025.71 254.891H1024.52V259.013C1024.52 260.223 1023.82 261.016 1022.66 261.016C1021.56 261.016 1021.02 260.394 1021.02 259.238V254.891H1019.83V259.45C1019.83 261.063 1020.74 262.068 1022.29 262.068C1023.39 262.068 1024.11 261.645 1024.55 260.817H1024.58V262H1025.71V254.891ZM1027.13 256.88C1027.13 257.837 1027.74 258.466 1028.99 258.787L1030.25 259.108C1031.04 259.32 1031.34 259.58 1031.34 260.072C1031.34 260.701 1030.74 261.098 1029.78 261.098C1028.82 261.098 1028.24 260.715 1028.13 259.99H1026.94C1027.05 261.234 1028.15 262.068 1029.71 262.068C1031.36 262.068 1032.54 261.207 1032.54 259.983C1032.54 258.951 1032.02 258.445 1030.58 258.083L1029.48 257.816C1028.67 257.611 1028.3 257.297 1028.3 256.818C1028.3 256.21 1028.88 255.8 1029.74 255.8C1030.61 255.8 1031.18 256.21 1031.25 256.873H1032.38C1032.34 255.69 1031.24 254.829 1029.78 254.829C1028.22 254.829 1027.13 255.677 1027.13 256.88Z" fill="white"/>
</svg>
